<?xml version="1.0" encoding="UTF-8"?>
<svg xmlns="http://www.w3.org/2000/svg" id="soccer1" x="0px" y="0px" viewBox="0 0 2948.4 2312.3" preserveAspectRatio="xMidYMid meet">
  <title>soccer-1</title>
  <!-- SVG ORIGINAL SIN ANIMACIONES -->
  <!-- He mantenido los grupos/clases tal cual; puedes aplicar estilos si quieres -->
  <g class="soccer1ball">
    <g>
      <polygon fill="#FFFFFF" points="2731.4,2053.3 2802.7,2098 2784.7,2026" opacity="0.4" />
      <polygon fill="#FFFFFF" points="2764.7,2117.3 2802.7,2098 2798,2198.7" opacity="0.2" />
      <polygon fill="#FFFFFF" points="2764.7,2117.3 2759.4,2176 2798,2198.7" opacity="0.2" />
      <polygon fill="#FFFFFF" points="2852,2129.3 2802.7,2098 2868.7,2044.7" opacity="0.4" />
      <polygon fill="#FFFFFF" points="2852,2129.3 2896.7,2094.7 2868.7,2044.7" opacity="0.2" />
      <polygon fill="#FFFFFF" points="2812.7,2046 2868.7,2044.7 2878.7,2024.7" opacity="0.2" />
      <polygon fill="#FFFFFF" points="2878.7,2024.7 2917.4,2046 2880.7,2013.3" opacity="0.2" />
      <polygon fill="#FFFFFF" points="2920.7,2116 2939.4,2088 2917.4,2046" opacity="0.4" />
      <polygon fill="#FFFFFF" points="2888.7,2198 2923.4,2170 2920.7,2116" opacity="0.4" />
      <polygon fill="#FFFFFF" points="2892.7,2236.7 2934,2180.7 2888.7,2198" opacity="0.4" />
      <polygon fill="#FFFFFF" points="2920.7,2116 2947.4,2137.3 2939.4,2088" opacity="0.2" />
      <polygon fill="#FFFFFF" points="2798,2198.7 2804.7,2244 2867.4,2233.3" opacity="0.4" />
      <polygon fill="#FFFFFF" points="2804.7,2244 2773.4,2252.7 2798,2198.7" opacity="0.4" />
      <polygon fill="#FFFFFF" points="2773.4,2252.7 2718.7,2212.7 2759.4,2176" opacity="0.4" />
      <polygon fill="#FFFFFF" points="2773.4,2252.7 2822,2262 2804.7,2244" opacity="0.4" />
      <polygon fill="#FFFFFF" points="2822,2262 2865.4,2250.7 2804.7,2244" opacity="0.4" />
      <polygon fill="#FFFFFF" points="2865.4,2250.7 2892.7,2236.7 2867.4,2233.3" opacity="0.4" />
      <polygon fill="#FFFFFF" points="2718.7,2212.7 2737.4,2239.3 2773.4,2252.7" opacity="0.4" />
      <polygon fill="#FFFFFF" points="2718.7,2212.7 2690,2184 2679.4,2126.7" opacity="0.2" />
      <polygon fill="#FFFFFF" points="2694,2066 2731.4,2053.3 2720,2092" opacity="0.2" />
      <polygon fill="#FFFFFF" points="2713.4,2037.3 2749.4,2007.3 2731.4,2053.3" opacity="0.2" />
      <polygon fill="#FFFFFF" points="2696.7,2135.3 2718,2184 2759.4,2176" opacity="0.2" />
      <polygon fill="#FFFFFF" points="2696.7,2135.3 2764.7,2117.3 2720,2092" opacity="0.4" />
    </g>
    <g class="soccer1ball-line" style="fill:none;stroke:#fff;stroke-linejoin:round;stroke-width:2px">
      <polygon points="2784.7 2026.01 2812.7 2046.01 2802.7 2098.01 2784.7 2026.01" />
      <polygon points="2731.37 2053.34 2802.7 2098.01 2784.7 2026.01 2731.37 2053.34" />
      <polygon points="2731.37 2053.34 2720.04 2092.01 2764.7 2117.34 2731.37 2053.34" />
      <polygon points="2764.7 2117.34 2802.7 2098.01 2798.04 2198.68 2764.7 2117.34" />
      <polygon points="2764.7 2117.34 2759.37 2176.01 2798.04 2198.68 2764.7 2117.34" />
      <polygon points="2798.04 2198.68 2850.04 2170.68 2852.04 2129.34 2798.04 2198.68" />
      <polygon points="2852.04 2129.34 2802.7 2098.01 2868.7 2044.68 2852.04 2129.34" />
      <polygon points="2852.04 2129.34 2896.7 2094.68 2868.7 2044.68 2852.04 2129.34" />
      <polygon points="2812.7 2046.01 2868.7 2044.68 2878.7 2024.68 2812.7 2046.01" />
      <polygon points="2784.7 2026.01 2796.7 1999.34 2812.7 2046.01 2784.7 2026.01" />
      <polygon points="2796.7 1999.34 2832.7 1996.01 2794.7 1995.34 2796.7 1999.34" />
      <polygon points="2832.7 1996.01 2878.7 2024.68 2880.7 2013.34 2832.7 1996.01" />
      <polygon points="2878.7 2024.68 2917.37 2046.01 2880.7 2013.34 2878.7 2024.68" />
      <polygon points="2917.37 2046.01 2896.7 2094.68 2920.7 2116.01 2917.37 2046.01" />
      <polygon points="2920.7 2116.01 2939.37 2088.01 2917.37 2046.01 2920.7 2116.01" />
      <polygon points="2852.04 2129.34 2888.7 2198.01 2850.04 2170.68 2852.04 2129.34" />
      <polygon points="2888.7 2198.01 2923.37 2170.01 2920.7 2116.01 2888.7 2198.01" />
      <polygon points="2888.7 2198.01 2867.37 2233.34 2892.7 2236.68 2888.7 2198.01" />
      <polygon points="2892.7 2236.68 2934.04 2180.68 2888.7 2198.01 2892.7 2236.68" />
      <polygon points="2923.37 2170.01 2934.04 2180.68 2947.37 2137.34 2923.37 2170.01" />
      <polygon points="2920.7 2116.01 2947.37 2137.34 2939.37 2088.01 2920.7 2116.01" />
      <polygon points="2798.04 2198.68 2804.7 2244.01 2867.37 2233.34 2798.04 2198.68" />
      <polygon points="2804.7 2244.01 2773.37 2252.68 2798.04 2198.68 2804.7 2244.01" />
      <polygon points="2773.37 2252.68 2718.7 2212.68 2759.37 2176.01 2773.37 2252.68" />
      <polygon points="2718.7 2212.68 2718.04 2184.01 2759.37 2176.01 2718.7 2212.68" />
      <polygon points="2773.37 2252.68 2822.04 2262.01 2804.7 2244.01 2773.37 2252.68" />
      <polygon points="2822.04 2262.01 2865.37 2250.68 2804.7 2244.01 2822.04 2262.01" />
      <polygon points="2865.37 2250.68 2892.7 2236.68 2867.37 2233.34 2865.37 2250.68" />
      <polygon points="2718.7 2212.68 2737.37 2239.34 2773.37 2252.68 2718.7 2212.68" />
      <polygon points="2718.7 2212.68 2690.04 2184.01 2679.37 2126.68 2718.7 2212.68" />
      <polygon points="2679.37 2126.68 2696.7 2135.34 2720.04 2092.01 2679.37 2126.68" />
      <polygon points="2679.37 2126.68 2694.04 2066.01 2720.04 2092.01 2679.37 2126.68" />
      <polygon points="2694.04 2066.01 2731.37 2053.34 2720.04 2092.01 2694.04 2066.01" />
      <polygon points="2694.04 2066.01 2713.37 2037.34 2731.37 2053.34 2694.04 2066.01" />
      <polygon points="2713.37 2037.34 2749.37 2007.34 2731.37 2053.34 2713.37 2037.34" />
      <polygon points="2749.37 2007.34 2784.7 2026.01 2794.7 1995.34 2749.37 2007.34" />
      <polygon points="2696.7 2135.34 2718.04 2184.01 2759.37 2176.01 2696.7 2135.34" />
      <polygon points="2696.7 2135.34 2764.7 2117.34 2720.04 2092.01 2696.7 2135.34" />
    </g>
  </g>
  <!-- (Truncado por brevedad: el resto del SVG sigue igual al que me enviaste) -->
</svg>
